<svg width="154" height="166" viewBox="0 0 154 166" fill="none" xmlns="http://www.w3.org/2000/svg">
<rect y="12" width="154" height="154" rx="77" fill="#F5F5F5"/>
<path d="M32.5271 19.1698C32.5271 12.8698 26.8336 7.89953 20.311 9.12369C16.2084 9.89369 12.9389 13.2442 12.2204 17.3562C11.7713 19.9264 12.3016 22.3442 13.4739 24.3394H13.4683L13.4975 24.3781C13.8897 25.0394 14.3814 25.5121 14.8781 26.207L20.8195 34.077C21.5589 35.0564 23.0298 35.0564 23.769 34.077L29.6115 26.3367C29.6115 26.3367 30.7021 25.0361 31.0977 24.3677L31.1187 24.3397H31.1145C32.0069 22.8213 32.5271 21.0584 32.5271 19.1698ZM22.2945 23.6252C19.8075 23.6252 17.7913 21.6089 17.7913 19.1219C17.7913 16.635 19.8075 14.6187 22.2945 14.6187C24.7817 14.6187 26.7977 16.635 26.7977 19.1219C26.7977 21.6092 24.7815 23.6252 22.2945 23.6252Z" fill="#F5F5F5"/>
<path d="M142.903 81.2346C142.903 78.4573 140.392 76.266 137.517 76.8059C135.709 77.1452 134.267 78.6222 133.95 80.4352C133.752 81.5681 133.986 82.6341 134.503 83.5138H134.501L134.514 83.5309C134.687 83.8224 134.904 84.0307 135.122 84.337L137.741 87.8068C138.067 88.2385 138.716 88.2385 139.042 87.8068L141.617 84.3941C141.617 84.3941 142.098 83.821 142.273 83.5261L142.282 83.5138H142.28C142.673 82.8443 142.903 82.0668 142.903 81.2346ZM138.391 83.1985C137.295 83.1985 136.406 82.3095 136.406 81.2133C136.406 80.1169 137.295 79.2279 138.391 79.2279C139.488 79.2279 140.377 80.1169 140.377 81.2133C140.377 82.3095 139.488 83.1985 138.391 83.1985Z" fill="#F5F5F5"/>
<path d="M119.361 120.124C125.599 120.124 130.656 115.067 130.656 108.829C130.656 102.59 125.599 97.5333 119.361 97.5333C113.123 97.5333 108.066 102.59 108.066 108.829C108.066 115.067 113.123 120.124 119.361 120.124Z" fill="#F5F5F5"/>
<path d="M119.361 118.23C114.177 118.23 109.96 114.013 109.96 108.829C109.96 103.645 114.177 99.4279 119.361 99.4279C124.544 99.4279 128.762 103.645 128.762 108.829C128.762 114.013 124.544 118.23 119.361 118.23ZM119.361 101.036C115.064 101.036 111.568 104.532 111.568 108.829C111.568 113.125 115.064 116.621 119.361 116.621C123.657 116.621 127.153 113.125 127.153 108.829C127.153 104.532 123.657 101.036 119.361 101.036Z" fill="white"/>
<path d="M119.298 112.043C117.389 112.043 115.836 110.49 115.836 108.581C115.836 106.672 117.389 105.118 119.298 105.118C121.207 105.118 122.76 106.672 122.76 108.581C122.76 110.49 121.207 112.043 119.298 112.043ZM119.298 106.727C118.276 106.727 117.444 107.558 117.444 108.58C117.444 109.602 118.276 110.434 119.298 110.434C120.32 110.434 121.151 109.602 121.151 108.58C121.151 107.558 120.32 106.727 119.298 106.727Z" fill="white"/>
<path d="M119.298 108.58H114.921L115.684 109.931L105.383 114.652L105.731 115.231L116.066 110.565L116.775 111.906L119.298 108.58Z" fill="#E0E0E0"/>
<path d="M105.383 114.652L105.274 114.545C104.734 114.019 103.953 113.824 103.228 114.035L99.1195 115.231L101.408 116.236L100.489 118.681L104.344 117.306C105.213 116.996 105.777 116.153 105.731 115.231L105.383 114.652Z" fill="#E0E0E0"/>
<path d="M55.5376 117.021C55.5387 117.019 55.5672 117.01 55.6221 116.993C55.6829 116.975 55.763 116.952 55.8652 116.922C56.085 116.859 56.398 116.77 56.8018 116.655C57.621 116.425 58.8068 116.092 60.3029 115.672L60.2715 115.728C60.092 115.128 59.8913 114.455 59.6757 113.734L59.6656 113.701L59.6936 113.678C60.5708 112.946 61.4341 111.983 62.1349 110.804C62.4841 110.214 62.7618 109.553 62.9522 108.847C63.1516 108.14 63.1785 107.372 63.0847 106.607C62.8464 105.081 62.07 103.528 60.7836 102.407C59.5138 101.278 57.8182 100.53 56.0172 100.356C54.6746 100.225 53.3376 100.534 52.189 101.121C51.0251 101.684 50.0484 102.536 49.3375 103.521C48.6199 104.508 48.2419 105.663 48.1108 106.78C48.094 107.062 48.0498 107.34 48.0562 107.616C48.0641 107.893 48.0722 108.166 48.0798 108.436C48.131 108.974 48.2172 109.496 48.3598 109.988C48.507 110.479 48.6986 110.941 48.9296 111.366C49.1648 111.789 49.4408 112.169 49.7371 112.511C50.3335 113.193 51.0195 113.703 51.687 114.085C53.0318 114.845 54.2767 115.153 55.1601 115.285L55.18 115.288L55.1839 115.307C55.3004 115.862 55.3894 116.286 55.451 116.578C55.4793 116.718 55.5012 116.826 55.5174 116.906C55.532 116.98 55.5387 117.019 55.5376 117.021C55.5364 117.023 55.5269 116.989 55.5093 116.918C55.4905 116.841 55.4648 116.736 55.4317 116.599C55.3623 116.305 55.262 115.878 55.1302 115.319L55.154 115.34C54.2588 115.221 53.0061 114.925 51.64 114.167C50.9624 113.787 50.2635 113.275 49.6534 112.585C49.3501 112.24 49.067 111.853 48.8254 111.424C48.5882 110.993 48.3911 110.523 48.2391 110.024C48.0918 109.523 48.0019 108.993 47.9482 108.448C47.9395 108.173 47.9305 107.896 47.9213 107.615C47.914 107.335 47.9577 107.051 47.9739 106.765C48.1036 105.627 48.4869 104.447 49.2177 103.437C49.9415 102.429 50.9366 101.56 52.121 100.986C53.2869 100.387 54.6581 100.069 56.0304 100.203C57.866 100.382 59.5883 101.142 60.8828 102.296C61.531 102.87 62.0705 103.548 62.4541 104.287C62.5653 104.464 62.6378 104.658 62.7212 104.846C62.8036 105.035 62.8895 105.221 62.9413 105.418C63.0004 105.612 63.064 105.804 63.118 105.997C63.1533 106.195 63.1883 106.392 63.223 106.587C63.3176 107.372 63.2866 108.16 63.081 108.88C62.8845 109.6 62.5989 110.27 62.2424 110.867C61.5256 112.06 60.654 113.022 59.758 113.76L59.7759 113.704C59.9862 114.427 60.1825 115.101 60.3575 115.702L60.3704 115.747L60.3258 115.759C58.8127 116.161 57.6135 116.48 56.785 116.7C56.3829 116.805 56.0715 116.886 55.8528 116.943C55.7529 116.968 55.6745 116.988 55.6151 117.003C55.5628 117.017 55.5364 117.023 55.5376 117.021Z" fill="#E0E0E0"/>
<path d="M58.3123 117.768C59.6676 117.397 60.7573 117.063 60.7461 117.022C60.7349 116.981 59.6271 117.249 58.2718 117.62C56.9165 117.991 55.8268 118.324 55.838 118.365C55.8492 118.406 56.957 118.139 58.3123 117.768Z" fill="#E0E0E0"/>
<path d="M59.6648 119.314C59.6808 119.352 59.3137 119.537 58.8234 119.654C58.3334 119.773 57.9224 119.774 57.9193 119.733C57.9151 119.69 58.3102 119.621 58.7876 119.505C59.2655 119.391 59.6488 119.274 59.6648 119.314Z" fill="#E0E0E0"/>
<path d="M56.5383 116.748C56.5358 116.748 56.5265 116.721 56.5111 116.668C56.494 116.606 56.4728 116.528 56.4462 116.43C56.3893 116.21 56.3106 115.903 56.2107 115.514C56.0099 114.705 55.7243 113.554 55.3724 112.136C55.1974 111.422 55.0061 110.64 54.8006 109.802C54.7505 109.599 54.6785 109.392 54.5548 109.224C54.44 109.053 54.2227 108.964 54.044 109.055C53.8679 109.142 53.7828 109.375 53.7809 109.589C53.7758 109.808 53.8817 110.019 54.0306 110.192C54.3344 110.538 54.8485 110.687 55.3264 110.621C55.8122 110.563 56.2401 110.219 56.4624 109.761C56.6923 109.307 56.7458 108.755 56.6245 108.242C56.5635 107.987 56.4624 107.73 56.2765 107.558C56.1009 107.388 55.7991 107.326 55.6053 107.465C55.411 107.604 55.3785 107.91 55.479 108.133C55.5807 108.367 55.7876 108.547 56.0018 108.706C56.4299 109.023 56.9236 109.259 57.4337 109.296C57.6871 109.315 57.9428 109.283 58.1682 109.187C58.393 109.087 58.5932 108.932 58.7408 108.74C58.8894 108.551 58.988 108.322 58.9992 108.091C59.0135 107.859 58.941 107.628 58.7875 107.463C58.6394 107.297 58.4143 107.203 58.2132 107.266C58.0119 107.325 57.8602 107.51 57.7879 107.709C57.6488 108.121 57.7717 108.579 57.821 109.001C57.9565 109.852 58.1091 110.642 58.2485 111.363C58.5378 112.794 58.7724 113.957 58.9373 114.773C59.0171 115.167 59.0799 115.478 59.1249 115.701C59.1437 115.8 59.1588 115.88 59.1706 115.943C59.1801 115.997 59.1837 116.026 59.1809 116.026C59.1784 116.027 59.1697 116 59.1552 115.946C59.1395 115.884 59.1196 115.805 59.0947 115.707C59.0426 115.486 58.9707 115.178 58.8788 114.786C58.6968 113.985 58.4375 112.824 58.1421 111.384C57.9957 110.664 57.8369 109.875 57.6953 109.021C57.6642 108.806 57.6269 108.59 57.6043 108.364C57.5827 108.139 57.5788 107.898 57.6611 107.663C57.744 107.435 57.9145 107.214 58.1738 107.133C58.4364 107.051 58.7209 107.175 58.8914 107.368C59.0723 107.561 59.1591 107.835 59.1426 108.099C59.13 108.365 59.0188 108.621 58.8561 108.83C58.6934 109.042 58.4759 109.211 58.2267 109.323C57.9738 109.431 57.6955 109.466 57.4225 109.446C56.8721 109.405 56.3554 109.157 55.9105 108.828C55.6904 108.664 55.4614 108.472 55.3382 108.193C55.2189 107.921 55.2424 107.546 55.5154 107.34C55.7957 107.148 56.1625 107.24 56.3795 107.445C56.6021 107.654 56.7066 107.937 56.7721 108.207C56.9006 108.755 56.8438 109.339 56.5957 109.829C56.3591 110.32 55.8811 110.704 55.3466 110.766C54.8244 110.835 54.2678 110.676 53.9245 110.285C53.7587 110.094 53.6361 109.847 53.6425 109.588C53.6487 109.341 53.7363 109.062 53.9844 108.934C54.1059 108.872 54.2468 108.872 54.3694 108.916C54.494 108.96 54.5886 109.051 54.6592 109.146C54.8003 109.34 54.8717 109.559 54.9238 109.773C55.1226 110.613 55.308 111.396 55.4774 112.112C55.8094 113.534 56.0788 114.689 56.2684 115.501C56.3566 115.893 56.426 116.202 56.4759 116.424C56.4966 116.523 56.5131 116.602 56.5262 116.665C56.5369 116.719 56.5411 116.747 56.5383 116.748Z" fill="#E0E0E0"/>
<path d="M58.5959 118.685C59.6957 118.384 60.5782 118.108 60.5671 118.067C60.556 118.026 59.6554 118.237 58.5556 118.537C57.4558 118.838 56.5733 119.115 56.5844 119.155C56.5955 119.196 57.4961 118.985 58.5959 118.685Z" fill="#E0E0E0"/>
<path d="M136.68 131C136.68 131.04 109.958 131.073 77.0028 131.073C44.0359 131.073 17.3199 131.04 17.3199 131C17.3199 130.96 44.0361 130.927 77.0028 130.927C109.958 130.927 136.68 130.96 136.68 131Z" fill="#263238"/>
<path d="M131.749 18.3691H22.3105V25.3801H131.749V18.3691Z" fill="#E0E0E0"/>
<path d="M131.733 31.8203H22.2943V93.196H131.733V31.8203Z" fill="white"/>
<path d="M22.3105 25.3277H37.3367L38.8257 20.9913H63.1835L64.6725 25.3277H131.749V31.9668H22.3105V25.3277Z" fill="#EBEBEB"/>
<path d="M25.0999 21.9869C25.5541 21.9869 25.9223 21.6187 25.9223 21.1645C25.9223 20.7103 25.5541 20.3422 25.0999 20.3422C24.6457 20.3422 24.2776 20.7103 24.2776 21.1645C24.2776 21.6187 24.6457 21.9869 25.0999 21.9869Z" fill="#263238"/>
<path d="M27.6451 21.9869C28.0993 21.9869 28.4674 21.6187 28.4674 21.1645C28.4674 20.7103 28.0993 20.3422 27.6451 20.3422C27.1909 20.3422 26.8227 20.7103 26.8227 21.1645C26.8227 21.6187 27.1909 21.9869 27.6451 21.9869Z" fill="#263238"/>
<path d="M30.1902 21.9871C30.6446 21.9871 31.0129 21.6188 31.0129 21.1644C31.0129 20.7101 30.6446 20.3418 30.1902 20.3418C29.7359 20.3418 29.3676 20.7101 29.3676 21.1644C29.3676 21.6188 29.7359 21.9871 30.1902 21.9871Z" fill="#263238"/>
<path d="M119.653 30.6466H44.5705C43.4197 30.6466 42.4867 29.7137 42.4867 28.5629C42.4867 27.4121 43.4197 26.4791 44.5705 26.4791H119.653C120.804 26.4791 121.736 27.4121 121.736 28.5629C121.736 29.7137 120.804 30.6466 119.653 30.6466Z" fill="#FAFAFA"/>
<path d="M46.3673 28.8402V29.5441H46.0108V28.8951C46.0108 28.6963 45.9193 28.6047 45.7616 28.6047C45.5903 28.6047 45.4668 28.7097 45.4668 28.9362V29.5441H45.1104V27.8481H45.4668V28.4426C45.5628 28.3465 45.7 28.2964 45.8577 28.2964C46.1478 28.2961 46.3673 28.4653 46.3673 28.8402Z" fill="#E0E0E0"/>
<path d="M47.4831 29.4847C47.41 29.5374 47.3025 29.5626 47.1927 29.5626C46.9024 29.5626 46.7333 29.4139 46.7333 29.1213V28.6162H46.5437V28.342H46.7333V28.0427H47.09V28.342H47.3963V28.6162H47.09V29.1168C47.09 29.2218 47.1471 29.2792 47.2431 29.2792C47.2958 29.2792 47.3481 29.2632 47.3871 29.2333L47.4831 29.4847Z" fill="#E0E0E0"/>
<path d="M48.4505 29.4847C48.3775 29.5374 48.2699 29.5626 48.1602 29.5626C47.8698 29.5626 47.7007 29.4139 47.7007 29.1213V28.6162H47.5111V28.342H47.7007V28.0427H48.0574V28.342H48.3637V28.6162H48.0574V29.1168C48.0574 29.2218 48.1145 29.2792 48.2106 29.2792C48.2632 29.2792 48.3156 29.2632 48.3545 29.2333L48.4505 29.4847Z" fill="#E0E0E0"/>
<path d="M49.9913 28.9293C49.9913 29.3154 49.7239 29.5623 49.3787 29.5623C49.2255 29.5623 49.0998 29.5145 49.0085 29.4137V29.9874H48.6521V28.3141H48.9925V28.4558C49.0816 28.3483 49.2143 28.2959 49.3787 28.2959C49.7239 28.2962 49.9913 28.5429 49.9913 28.9293ZM49.6301 28.9293C49.6301 28.7167 49.4954 28.5888 49.3171 28.5888C49.1387 28.5888 49.0037 28.7167 49.0037 28.9293C49.0037 29.1418 49.1387 29.2697 49.3171 29.2697C49.4954 29.2697 49.6301 29.1418 49.6301 28.9293Z" fill="#E0E0E0"/>
<path d="M50.1426 28.5179C50.1426 28.3854 50.2408 28.2983 50.3643 28.2983C50.4878 28.2983 50.5861 28.3854 50.5861 28.5179C50.5861 28.6481 50.4878 28.7419 50.3643 28.7419C50.2408 28.7419 50.1426 28.6481 50.1426 28.5179ZM50.1426 29.3383C50.1426 29.2058 50.2408 29.1187 50.3643 29.1187C50.4878 29.1187 50.5861 29.2058 50.5861 29.3383C50.5861 29.4685 50.4878 29.5623 50.3643 29.5623C50.2408 29.5623 50.1426 29.4687 50.1426 29.3383Z" fill="#E0E0E0"/>
<path d="M51.4639 27.6196H51.7817L51.0273 29.7728H50.7095L51.4639 27.6196Z" fill="#E0E0E0"/>
<path d="M52.1932 27.6196H52.511L51.7567 29.7728H51.4389L52.1932 27.6196Z" fill="#E0E0E0"/>
<path d="M119.585 42.8575H54.1694C52.1296 42.8575 50.4759 41.2038 50.4759 39.1643C50.4759 37.1245 52.1296 35.4708 54.1694 35.4708H119.585C121.624 35.4708 123.278 37.1245 123.278 39.1643C123.278 41.2038 121.625 42.8575 119.585 42.8575Z" fill="#FAFAFA"/>
<path d="M119.585 42.8578C119.575 42.827 120.15 42.925 121.096 42.5156C121.555 42.3006 122.105 41.9436 122.542 41.3343C122.76 41.0333 122.956 40.6766 123.084 40.2667C123.21 39.8568 123.271 39.3967 123.237 38.9143C123.204 38.4327 123.072 37.929 122.822 37.4544C122.573 36.9789 122.195 36.5435 121.721 36.1983C121.248 35.8483 120.659 35.6198 120.029 35.5386C119.714 35.503 119.386 35.5095 119.051 35.5106C118.717 35.5109 118.377 35.5114 118.031 35.512C115.263 35.5154 112.111 35.5187 108.627 35.5229C94.688 35.5285 75.4363 35.5358 54.1728 35.5445C53.5229 35.5546 52.8697 35.7158 52.3175 36.0577C51.757 36.3848 51.3028 36.8742 50.9881 37.4345C50.3707 38.5662 50.4099 40.0208 51.1063 41.0899C51.4383 41.6317 51.9272 42.0674 52.4794 42.3664C53.0397 42.6568 53.6649 42.804 54.296 42.7861C55.5711 42.7864 56.8356 42.7864 58.0892 42.7867C63.1034 42.7881 67.9399 42.7895 72.5473 42.7909C81.7615 42.7968 90.0593 42.8021 97.0285 42.8066C103.995 42.8164 109.634 42.8242 113.533 42.8298C115.48 42.8357 116.992 42.8404 118.02 42.8435C118.531 42.8466 118.921 42.8491 119.187 42.8508C119.45 42.8528 119.585 42.8578 119.585 42.8578C119.585 42.8578 119.45 42.8628 119.187 42.8654C118.922 42.867 118.531 42.8696 118.02 42.8726C116.992 42.8757 115.48 42.8802 113.533 42.8864C109.634 42.892 103.995 42.8998 97.0288 42.9096C90.0596 42.9141 81.7621 42.9194 72.5475 42.9253C67.9401 42.9264 63.1034 42.9281 58.0895 42.9295C56.8359 42.9295 55.5714 42.9298 54.2963 42.93C53.6506 42.9491 52.9923 42.7962 52.4122 42.4941C51.8376 42.1836 51.3297 41.73 50.9839 41.1672C50.2598 40.0544 50.2181 38.5422 50.8607 37.3645C51.1877 36.7812 51.6601 36.273 52.2433 35.9326C52.8176 35.577 53.4977 35.4084 54.1734 35.3983C75.4366 35.4067 94.6883 35.4143 108.627 35.4196C112.111 35.4235 115.263 35.4272 118.032 35.4305C118.378 35.4311 118.718 35.4314 119.052 35.4319C119.385 35.4319 119.714 35.426 120.038 35.4636C120.682 35.5484 121.282 35.7836 121.761 36.142C122.244 36.4951 122.627 36.9403 122.878 37.425C123.13 37.9088 123.263 38.4215 123.294 38.9106C123.326 39.4006 123.262 39.8668 123.132 40.2818C123 40.697 122.8 41.0571 122.577 41.3604C122.131 41.9741 121.573 42.3303 121.109 42.5428C120.637 42.7536 120.242 42.8099 119.983 42.8435C119.72 42.8578 119.585 42.8578 119.585 42.8578Z" fill="#263238"/>
<path d="M55.6683 39.9507L55.808 39.6413C55.9578 39.7505 56.181 39.8266 56.3944 39.8266C56.638 39.8266 56.7371 39.7454 56.7371 39.6362C56.7371 39.3039 55.7042 39.5321 55.7042 38.8724C55.7042 38.5703 55.9478 38.3191 56.4529 38.3191C56.676 38.3191 56.9045 38.3723 57.0694 38.4765L56.9426 38.7887C56.7777 38.6949 56.6077 38.6489 56.4504 38.6489C56.2068 38.6489 56.1127 38.7402 56.1127 38.8519C56.1127 39.1793 57.1456 38.9533 57.1456 39.6057C57.1456 39.9025 56.8995 40.1565 56.3918 40.1565C56.1099 40.1565 55.8257 40.0725 55.6683 39.9507Z" fill="#E0E0E0"/>
<path d="M58.7298 39.5546H57.6969C57.7349 39.7246 57.8797 39.8288 58.0877 39.8288C58.2325 39.8288 58.3364 39.7856 58.4305 39.6969L58.641 39.9254C58.5139 40.0701 58.3238 40.146 58.0777 40.146C57.6056 40.146 57.2984 39.8492 57.2984 39.4432C57.2984 39.0347 57.6106 38.7401 58.0267 38.7401C58.4277 38.7401 58.7373 39.0089 58.7373 39.4482C58.7373 39.4788 58.7323 39.5216 58.7298 39.5546ZM57.6915 39.3236H58.3641C58.3361 39.1512 58.2067 39.0394 58.0292 39.0394C57.8489 39.0394 57.7195 39.1486 57.6915 39.3236Z" fill="#E0E0E0"/>
<path d="M60.1721 39.3466V40.1259H59.8017V39.9559C59.7281 40.0802 59.5858 40.1463 59.3856 40.1463C59.0659 40.1463 58.8755 39.9688 58.8755 39.7328C58.8755 39.4917 59.0454 39.3242 59.4618 39.3242H59.7765C59.7765 39.1543 59.6751 39.0554 59.4618 39.0554C59.317 39.0554 59.1675 39.1036 59.0684 39.1823L58.9261 38.9056C59.0759 38.7992 59.2966 38.7407 59.515 38.7407C59.9311 38.7402 60.1721 38.9331 60.1721 39.3466ZM59.7762 39.6944V39.5547H59.5046C59.3193 39.5547 59.261 39.6233 59.261 39.7146C59.261 39.8137 59.3447 39.8795 59.4845 39.8795C59.6163 39.8795 59.7306 39.8187 59.7762 39.6944Z" fill="#E0E0E0"/>
<path d="M61.3784 38.7401V39.1055C61.3454 39.103 61.3202 39.1005 61.2897 39.1005C61.0713 39.1005 60.9268 39.2198 60.9268 39.481V40.1256H60.5309V38.7603H60.9089V38.9406C61.0055 38.8087 61.1679 38.7401 61.3784 38.7401Z" fill="#E0E0E0"/>
<path d="M61.5007 39.4432C61.5007 39.0322 61.818 38.7401 62.2621 38.7401C62.5488 38.7401 62.7747 38.8644 62.8736 39.0879L62.5664 39.2528C62.4928 39.1234 62.3839 39.0652 62.2593 39.0652C62.0588 39.0652 61.9014 39.2049 61.9014 39.4435C61.9014 39.682 62.0588 39.8215 62.2593 39.8215C62.3836 39.8215 62.4928 39.7658 62.5664 39.6339L62.8736 39.8013C62.7745 40.0194 62.5488 40.1463 62.2621 40.1463C61.818 40.146 61.5007 39.8542 61.5007 39.4432Z" fill="#E0E0E0"/>
<path d="M64.4886 39.3442V40.1259H64.0927V39.4052C64.0927 39.1843 63.9914 39.0829 63.8161 39.0829C63.6257 39.0829 63.4888 39.1997 63.4888 39.4508V40.1259H63.0928V38.2429H63.4888V38.9026C63.5954 38.7959 63.7478 38.7402 63.9228 38.7402C64.245 38.7402 64.4886 38.9278 64.4886 39.3442Z" fill="#E0E0E0"/>
<path d="M65.4694 39.8974C65.4694 39.7504 65.5786 39.6538 65.7155 39.6538C65.8525 39.6538 65.9617 39.7504 65.9617 39.8974C65.9617 40.0422 65.8525 40.146 65.7155 40.146C65.5786 40.146 65.4694 40.0419 65.4694 39.8974Z" fill="#E0E0E0"/>
<path d="M66.1347 39.8974C66.1347 39.7504 66.2439 39.6538 66.3808 39.6538C66.5177 39.6538 66.6269 39.7504 66.6269 39.8974C66.6269 40.0422 66.5177 40.146 66.3808 40.146C66.2439 40.146 66.1347 40.0419 66.1347 39.8974Z" fill="#E0E0E0"/>
<path d="M66.8 39.8974C66.8 39.7504 66.9092 39.6538 67.0461 39.6538C67.183 39.6538 67.2922 39.7504 67.2922 39.8974C67.2922 40.0422 67.183 40.146 67.0461 40.146C66.9092 40.146 66.8 40.0419 66.8 39.8974Z" fill="#E0E0E0"/>
<path d="M36.9954 49.3596C40.2339 49.3596 42.8592 49.327 42.8592 49.2868C42.8592 49.2466 40.2339 49.214 36.9954 49.214C33.757 49.214 31.1317 49.2466 31.1317 49.2868C31.1317 49.327 33.757 49.3596 36.9954 49.3596Z" fill="black"/>
<path d="M43.317 52.6376H31.132V64.8226H43.317V52.6376Z" fill="#2091F9"/>
<path d="M117.363 55.5095C117.363 55.5498 102.237 55.5823 83.5832 55.5823C64.9223 55.5823 49.8001 55.5495 49.8001 55.5095C49.8001 55.4692 64.9226 55.4364 83.5832 55.4364C102.237 55.4364 117.363 55.4692 117.363 55.5095Z" fill="black"/>
<path d="M68.2793 60.0972C68.2793 60.1375 64.2937 60.1703 59.3781 60.1703C54.461 60.1703 50.476 60.1375 50.476 60.0972C50.476 60.0569 54.461 60.0244 59.3781 60.0244C64.2937 60.0244 68.2793 60.0569 68.2793 60.0972Z" fill="black"/>
<path d="M106.564 64.3511C106.564 64.3914 94.0071 64.4239 78.5214 64.4239C63.0301 64.4239 50.476 64.3914 50.476 64.3511C50.476 64.3108 63.0301 64.2783 78.5214 64.2783C94.0073 64.2783 106.564 64.3111 106.564 64.3511Z" fill="#E0E0E0"/>
<path d="M36.9954 71.1847C40.2339 71.1847 42.8592 71.152 42.8592 71.1117C42.8592 71.0713 40.2339 71.0386 36.9954 71.0386C33.757 71.0386 31.1317 71.0713 31.1317 71.1117C31.1317 71.152 33.757 71.1847 36.9954 71.1847Z" fill="black"/>
<path d="M43.317 74.4625H31.132V86.6476H43.317V74.4625Z" fill="#2091F9"/>
<path d="M121.377 77.3344C121.377 77.375 105.353 77.4075 85.5902 77.4075C65.8208 77.4075 49.8001 77.375 49.8001 77.3344C49.8001 77.2941 65.8208 77.2616 85.5902 77.2616C105.353 77.2616 121.377 77.2941 121.377 77.3344Z" fill="black"/>
<path d="M68.2793 81.9224C68.2793 81.9628 64.2937 81.9952 59.3781 81.9952C54.461 81.9952 50.476 81.9628 50.476 81.9224C50.476 81.8818 54.461 81.8494 59.3781 81.8494C64.2937 81.8494 68.2793 81.8818 68.2793 81.9224Z" fill="black"/>
<path d="M116.332 86.1762C116.332 86.2166 101.589 86.249 83.4057 86.249C65.2163 86.249 50.476 86.2166 50.476 86.1762C50.476 86.1356 65.2166 86.1031 83.4057 86.1031C101.589 86.1031 116.332 86.1356 116.332 86.1762Z" fill="#E0E0E0"/>
<path d="M131.749 93.3425C131.749 92.8626 131.727 64.0005 131.691 18.3692L131.749 18.4277C101.457 18.4316 63.4603 18.4367 22.3196 18.442H22.3109L22.3837 18.3692C22.3815 45.1299 22.3793 70.5575 22.3773 93.3425L22.3109 93.2759C86.8649 93.3151 131.156 93.3423 131.749 93.3425C131.156 93.3428 86.8649 93.37 22.3107 93.4092H22.244V93.3425C22.2421 70.5575 22.2398 45.1299 22.2379 18.3692V18.2964H22.3109H22.3196C63.4603 18.3017 101.457 18.3067 131.749 18.3107H131.808V18.3692C131.772 64.0005 131.75 92.8629 131.749 93.3425Z" fill="#263238"/>
<path d="M60.229 23.8008C60.229 23.8411 56.365 23.8739 51.5994 23.8739C46.8321 23.8739 42.9689 23.8411 42.9689 23.8008C42.9689 23.7605 46.8321 23.728 51.5994 23.728C56.365 23.728 60.229 23.7608 60.229 23.8008Z" fill="black"/>
<path d="M44.6595 37.5828H29.3318V42.2H44.6595V37.5828Z" fill="#455A64"/>
<path d="M71.8005 49.6757C71.8005 49.716 67.0344 49.7485 61.1566 49.7485C55.2766 49.7485 50.5116 49.716 50.5116 49.6757C50.5116 49.6354 55.2766 49.6029 61.1566 49.6029C67.0344 49.6029 71.8005 49.6357 71.8005 49.6757Z" fill="#2091F9"/>
<path d="M71.8005 71.1117C71.8005 71.152 67.0344 71.1847 61.1566 71.1847C55.2766 71.1847 50.5116 71.152 50.5116 71.1117C50.5116 71.0713 55.2766 71.0386 61.1566 71.0386C67.0344 71.0386 71.8005 71.0716 71.8005 71.1117Z" fill="#2091F9"/>
<path d="M118.177 40.3932C117.196 40.3932 116.398 39.5949 116.398 38.6141C116.398 37.633 117.196 36.835 118.177 36.835C119.158 36.835 119.956 37.6332 119.956 38.6141C119.956 39.5952 119.158 40.3932 118.177 40.3932ZM118.177 37.115C117.35 37.115 116.678 37.7875 116.678 38.6141C116.678 39.4406 117.35 40.1132 118.177 40.1132C119.003 40.1132 119.676 39.4406 119.676 38.6141C119.676 37.7875 119.003 37.115 118.177 37.115Z" fill="#2091F9"/>
<path d="M120.362 41.1826C120.327 41.1826 120.291 41.1692 120.264 41.142L119.104 39.9909C119.05 39.9363 119.049 39.8479 119.104 39.7927C119.158 39.7381 119.247 39.7375 119.302 39.7921L120.461 40.9432C120.516 40.9978 120.516 41.0863 120.462 41.1415C120.434 41.1689 120.399 41.1826 120.362 41.1826Z" fill="#2091F9"/>
<path d="M90.9665 59.782C90.9665 59.8224 86.381 59.8551 80.7261 59.8551C75.0692 59.8551 70.4848 59.8224 70.4848 59.782C70.4848 59.7417 75.0692 59.7092 80.7261 59.7092C86.381 59.7092 90.9665 59.742 90.9665 59.782Z" fill="black"/>
<path d="M98.844 59.5398C101.802 59.5398 104.201 59.5072 104.201 59.467C104.201 59.4268 101.802 59.3942 98.844 59.3942C95.8856 59.3942 93.4873 59.4268 93.4873 59.467C93.4873 59.5072 95.8856 59.5398 98.844 59.5398Z" fill="black"/>
<path d="M90.8696 81.9224C90.8696 81.9628 86.2843 81.9952 80.6294 81.9952C74.9723 81.9952 70.3881 81.9628 70.3881 81.9224C70.3881 81.8818 74.9726 81.8494 80.6294 81.8494C86.2843 81.8494 90.8696 81.8818 90.8696 81.9224Z" fill="black"/>
<path d="M35.9007 87.6852C33.629 88.862 31.8872 90.8878 30.6344 93.1186C29.3817 95.3496 28.5748 97.7974 27.7751 100.228L27.0754 112.761C29.7186 108.264 31.8401 102.978 32.4133 97.7935C31.827 97.7411 31.2406 97.689 30.6543 97.6367C31.8337 97.4563 32.8238 96.6021 33.4535 95.589C34.0835 94.5757 34.4077 93.4073 34.7241 92.257C34.0087 92.3634 33.2933 92.4698 32.5779 92.5762C34.2588 91.4543 35.477 89.6606 35.9007 87.6852Z" fill="#455A64"/>
<g opacity="0.3">
<path d="M35.9007 87.6852C33.629 88.862 31.8872 90.8878 30.6344 93.1186C29.3817 95.3496 28.5748 97.7974 27.7751 100.228L27.0754 112.761C29.7186 108.264 31.8401 102.978 32.4133 97.7935C31.827 97.7411 31.2406 97.689 30.6543 97.6367C31.8337 97.4563 32.8238 96.6021 33.4535 95.589C34.0835 94.5757 34.4077 93.4073 34.7241 92.257C34.0087 92.3634 33.2933 92.4698 32.5779 92.5762C34.2588 91.4543 35.477 89.6606 35.9007 87.6852Z" fill="black"/>
</g>
<path d="M26.6839 115.697C26.6839 115.697 20.9467 108.83 21.013 102.275H23.3306C23.3306 102.275 20.8131 100.619 21.0125 99.6924C21.2115 98.765 21.2779 95.2555 21.2779 95.2555L23.3967 95.7855C23.3967 95.7855 21.8074 94.9909 21.6089 93.7329C21.4103 92.4748 22.0725 86.6475 22.0725 86.6475C22.0725 86.6475 24.655 89.3623 25.4496 92.1436C26.244 94.9248 28.33 98.1695 27.7173 106.645C27.105 115.121 26.6839 115.697 26.6839 115.697Z" fill="#455A64"/>
<path d="M29.5925 116.346C29.5925 116.346 35.8082 112.205 37.1892 106.92L35.3261 106.413C35.3261 106.413 37.712 105.633 37.7548 104.844C37.7976 104.055 38.5122 101.219 38.5122 101.219L36.6928 101.181C36.6928 101.181 38.1443 100.89 38.5791 99.9217C39.0142 98.9537 39.7568 94.124 39.7568 94.124C39.7568 94.124 37.0864 95.7416 35.8393 97.8041C34.5919 99.866 32.2052 102.018 30.8433 108.967C29.4811 115.915 29.5925 116.346 29.5925 116.346Z" fill="#455A64"/>
<path d="M23.6397 92.6347C23.6422 92.6341 23.6498 92.6582 23.6624 92.7055C23.6761 92.7612 23.6932 92.8306 23.7142 92.9166C23.7593 93.1137 23.8212 93.3859 23.8998 93.7306C24.0603 94.4379 24.2725 95.4657 24.5158 96.7395C25.0056 99.2863 25.5838 102.824 26.0399 106.756C26.4929 110.689 26.7371 114.266 26.8415 116.858C26.8953 118.153 26.9233 119.202 26.9283 119.927C26.9306 120.281 26.9322 120.56 26.9334 120.762C26.9325 120.851 26.9317 120.922 26.9311 120.979C26.9297 121.028 26.9278 121.054 26.9252 121.054C26.9227 121.054 26.9196 121.029 26.916 120.98C26.9129 120.922 26.9087 120.851 26.904 120.763C26.8961 120.561 26.8855 120.282 26.8715 119.929C26.8488 119.204 26.8054 118.157 26.7382 116.862C26.6077 114.274 26.3473 110.702 25.8948 106.773C25.4393 102.845 24.8776 99.3079 24.4142 96.7582C24.184 95.4828 23.9875 94.4527 23.8441 93.7423C23.7769 93.3951 23.7237 93.121 23.6854 92.9225C23.67 92.8354 23.6576 92.7651 23.6476 92.7086C23.64 92.6604 23.6372 92.6352 23.6397 92.6347Z" fill="#263238"/>
<path d="M25.8881 119.902C25.8881 119.902 20.6378 113.945 19.0077 110.344L20.2383 109.818C19.3462 109.965 18.4323 109.582 17.7407 109C17.0491 108.417 16.5411 107.652 16.043 106.897L17.6642 106.623C16.19 106.209 14.8911 105.203 14.1219 103.879C16.0352 104.194 17.7659 105.244 19.1919 106.558C20.3469 107.621 21.3249 108.856 22.2643 110.118C22.7227 110.733 23.1234 111.389 23.4574 112.079C24.3397 113.904 25.8912 117.715 25.8881 119.902Z" fill="#455A64"/>
<path d="M37.2718 97.5918C37.2741 97.593 37.2662 97.6137 37.2494 97.6534C37.2279 97.7005 37.2021 97.7576 37.1705 97.8273C37.0929 97.99 36.9874 98.2109 36.8541 98.4898C36.5746 99.0627 36.1779 99.8957 35.6971 100.929C34.7342 102.994 33.4638 105.876 32.2089 109.118C30.9559 112.363 29.9568 115.35 29.2798 117.526C28.9407 118.614 28.6739 119.497 28.4955 120.109C28.4065 120.405 28.3359 120.639 28.2838 120.812C28.2603 120.885 28.2413 120.944 28.2253 120.993C28.2113 121.034 28.2029 121.055 28.2007 121.054C28.1984 121.054 28.2018 121.031 28.211 120.99C28.2231 120.939 28.2379 120.879 28.2558 120.804C28.3015 120.629 28.3631 120.393 28.4412 120.093C28.6033 119.477 28.8548 118.589 29.1818 117.496C29.8342 115.311 30.819 112.315 32.0736 109.066C33.3306 105.82 34.6172 102.941 35.6047 100.885C36.0981 99.8565 36.5091 99.0302 36.8042 98.4649C36.9479 98.1908 37.0616 97.974 37.1453 97.8144C37.182 97.7472 37.2122 97.6921 37.2371 97.6467C37.2576 97.6089 37.2696 97.5907 37.2718 97.5918Z" fill="#263238"/>
<path d="M26.3336 122.455C26.3235 122.456 26.2941 122.305 26.2499 122.03C26.2076 121.756 26.1373 121.36 26.0396 120.873C25.8456 119.9 25.5062 118.569 24.9731 117.151C24.4366 115.735 23.8111 114.511 23.3135 113.653C23.0654 113.223 22.8566 112.879 22.7068 112.645C22.5589 112.41 22.4808 112.277 22.4892 112.271C22.4973 112.265 22.5911 112.388 22.7541 112.614C22.9187 112.839 23.1419 113.175 23.4023 113.6C23.9248 114.449 24.5696 115.674 25.1097 117.1C25.6465 118.526 25.9721 119.871 26.1412 120.854C26.2264 121.345 26.2815 121.745 26.3064 122.023C26.3333 122.3 26.3434 122.454 26.3336 122.455Z" fill="#263238"/>
<path d="M33.2616 121.054H21.7704V123.398H33.2616V121.054Z" fill="#2091F9"/>
<path d="M22.8652 123.398L24.1085 131.282H31.0519L32.2105 123.398H22.8652Z" fill="#2091F9"/>
<path d="M27.7017 123.471C30.383 123.471 32.5566 123.438 32.5566 123.398C32.5566 123.358 30.383 123.325 27.7017 123.325C25.0204 123.325 22.8468 123.358 22.8468 123.398C22.8468 123.438 25.0204 123.471 27.7017 123.471Z" fill="#263238"/>
<path d="M82.6059 125.464V131.279L94.3326 131.222C94.2472 130.043 87.8114 127.69 87.8114 127.69L87.9393 125.464H82.6059V125.464Z" fill="#455A64"/>
<g opacity="0.6">
<path d="M84.5025 127.164C84.2776 127.233 84.1256 127.504 84.1816 127.745C84.2376 127.986 84.4966 128.152 84.7226 128.088C84.9488 128.023 85.1406 127.703 85.0597 127.471C84.9788 127.238 84.6643 127.06 84.4596 127.18" fill="white"/>
</g>
<path d="M82.606 131.279V130.35L93.8018 130.483C93.8018 130.483 94.3856 130.834 94.3327 131.222L82.606 131.279Z" fill="#263238"/>
<path d="M87.8112 127.802C87.8101 127.863 87.5259 127.895 87.2481 128.093C86.9659 128.284 86.8251 128.547 86.7724 128.524C86.7198 128.513 86.7996 128.151 87.1395 127.917C87.4772 127.68 87.823 127.747 87.8112 127.802Z" fill="#263238"/>
<path d="M89.3476 128.341C89.3616 128.399 89.1163 128.505 88.9264 128.763C88.7293 129.015 88.6845 129.292 88.628 129.291C88.5745 129.301 88.53 128.948 88.7719 128.632C89.0107 128.313 89.3456 128.283 89.3476 128.341Z" fill="#263238"/>
<path d="M90.0389 129.823C89.9871 129.837 89.9036 129.536 90.045 129.204C90.1845 128.87 90.451 128.736 90.4759 128.785C90.5087 128.835 90.3385 129.014 90.2259 129.29C90.108 129.561 90.0951 129.816 90.0389 129.823Z" fill="#263238"/>
<path d="M87.6976 126.149C87.6743 126.204 87.4117 126.125 87.0902 126.153C86.7682 126.174 86.519 126.293 86.4888 126.241C86.4552 126.198 86.6966 125.971 87.076 125.943C87.4545 125.913 87.7247 126.101 87.6976 126.149Z" fill="#263238"/>
<path d="M87.7624 128.063C87.7708 128.064 87.801 127.939 87.7876 127.708C87.7708 127.48 87.701 127.139 87.477 126.791C87.3639 126.62 87.2155 126.448 87.0184 126.308C86.9229 126.242 86.7745 126.168 86.6225 126.239C86.48 126.307 86.3996 126.466 86.3918 126.622C86.4069 127.22 86.8364 127.772 87.4222 127.982C88.023 128.193 88.6584 127.933 89.0058 127.512C89.0912 127.404 89.1733 127.296 89.2161 127.153C89.236 127.083 89.2455 127 89.2178 126.92C89.1912 126.841 89.1288 126.778 89.0585 126.752C88.9171 126.704 88.7967 126.746 88.6931 126.788C88.5912 126.837 88.5035 126.887 88.4201 126.944C88.0874 127.165 87.8752 127.421 87.7495 127.607C87.6235 127.795 87.5798 127.914 87.5879 127.919C87.6142 127.945 87.8304 127.459 88.4806 127.051C88.6376 126.961 88.8432 126.831 89.0089 126.889C89.0817 126.919 89.1106 127.004 89.0758 127.106C89.045 127.207 88.97 127.308 88.8916 127.403C88.5741 127.775 88.0004 128.001 87.4737 127.814C86.9534 127.639 86.5606 127.11 86.5452 126.632C86.548 126.521 86.6054 126.419 86.6835 126.38C86.7586 126.34 86.8568 126.374 86.9448 126.432C87.1251 126.553 87.2701 126.709 87.3816 126.864C87.6033 127.18 87.6879 127.499 87.7234 127.716C87.7554 127.936 87.7481 128.062 87.7624 128.063Z" fill="#263238"/>
<path d="M78.3202 126.306L78.5187 127.802L78.3863 131.177L73.9897 131.284L73.8329 127.802L74.3333 125.733L78.3202 126.306Z" fill="#455A64"/>
<path d="M76.2126 130.923C76.186 130.924 76.249 129.892 76.354 128.617C76.4587 127.342 76.5654 126.308 76.592 126.306C76.6189 126.305 76.5556 127.337 76.4508 128.612C76.3458 129.887 76.2392 130.922 76.2126 130.923Z" fill="#263238"/>
<path d="M78.4036 130.615L73.962 130.667V131.284L78.4067 131.279L78.4036 130.615Z" fill="#263238"/>
<path d="M73.9729 128.675C73.9661 128.67 74.0037 128.605 74.0851 128.497C74.1669 128.388 74.2963 128.24 74.4771 128.077C74.658 127.916 74.8935 127.74 75.1872 127.601C75.4781 127.459 75.8329 127.36 76.212 127.363C76.9725 127.364 77.612 127.736 77.927 128.107C78.0905 128.29 78.1913 128.463 78.249 128.586C78.3053 128.709 78.3263 128.782 78.319 128.785C78.2949 128.798 78.1888 128.51 77.8584 128.172C77.5387 127.833 76.9319 127.498 76.2103 127.496C75.491 127.492 74.8983 127.856 74.5379 128.149C74.1703 128.45 73.9913 128.69 73.9729 128.675Z" fill="#263238"/>
<path d="M76.1935 32.1256L76.1467 47.3256L82.6679 47.6367L82.8567 43.9396C82.8567 43.9396 85.1725 44.3996 85.7703 42.2484C86.152 40.8742 86.0565 30.2549 86.0565 30.2549L76.1935 32.1256Z" fill="#B78876"/>
<path d="M86.9149 31.325C85.8879 31.619 85.6647 33.2976 85.6647 33.2976L84.0536 36.8559C83.2326 36.2133 82.1308 36.25 81.9222 37.6925C81.7716 38.7347 83.0674 38.9455 83.0674 38.9455C82.3131 40.229 81.8015 41.2676 80.7031 42.4886C79.5145 43.81 78.8487 43.9432 77.5593 43.9648H76.1374C76.1374 43.9648 75.4416 41.706 74.1531 36.057C72.7234 29.7901 80.1341 30.5973 81.5081 28.9977C83.7453 26.3926 90.1528 30.3982 86.9149 31.325Z" fill="#263238"/>
<path d="M88.7252 29.964C88.6188 29.2967 87.9798 28.7384 87.3053 28.781C87.5469 28.4422 87.4316 27.9328 87.121 27.6559C86.8102 27.3793 86.358 27.3073 85.9467 27.3695C85.5351 27.4319 85.1524 27.6122 84.7763 27.7903C84.7088 27.4725 84.3062 26.9456 84.0209 26.7904C83.4474 26.4785 83.0879 26.4785 82.7628 26.4785C80.762 26.4782 79.7069 27.8494 78.6334 29.2455C78.4492 29.4852 78.2663 29.7526 77.9844 29.8612C77.7942 29.9346 77.584 29.925 77.3801 29.929C75.8558 29.9586 74.381 30.8759 73.6802 32.2297C72.9794 33.5835 72.4566 36.717 74.2693 38.6594L75.3624 41.099L85.8154 32.8166C85.8899 32.8552 86.5448 33.1747 87.0491 32.9096C88.3007 32.2507 87.7757 31.152 87.7757 31.152C87.8748 31.1005 88.831 30.6312 88.7252 29.964Z" fill="#263238"/>
<path d="M79.0498 38.1098C79.0918 38.1053 79.1564 38.6328 79.0122 39.2639C78.872 39.8959 78.5875 40.3447 78.5514 40.3226C78.5077 40.3008 78.7168 39.8351 78.851 39.2275C78.9901 38.6213 79.0008 38.1109 79.0498 38.1098Z" fill="#455A64"/>
<path d="M79.8383 37.3638C79.8822 37.3657 79.8918 37.8683 79.7775 38.4748C79.6655 39.0819 79.4751 39.5472 79.4334 39.5332C79.3883 39.5189 79.5051 39.0399 79.6149 38.4446C79.7274 37.8501 79.7912 37.361 79.8383 37.3638Z" fill="#455A64"/>
<path d="M82.097 34.8552C82.113 34.8771 81.9279 35.0118 81.6938 35.2864C81.4572 35.5583 81.1878 35.9836 80.991 36.4994C80.7936 37.0154 80.685 37.5099 80.6012 37.8664C80.5192 38.2239 80.4629 38.4454 80.4397 38.4412C80.4178 38.4373 80.4335 38.2099 80.4864 37.8445C80.5413 37.4805 80.6329 36.9734 80.8367 36.4398C81.0406 35.9061 81.3393 35.469 81.6078 35.2069C81.875 34.9415 82.0875 34.8393 82.097 34.8552Z" fill="#455A64"/>
<path d="M83.01 33.1472C83.0291 33.1419 83.096 33.2942 83.1366 33.5585C83.1778 33.8215 83.1789 34.1983 83.08 34.5962C82.9795 34.9941 82.8006 35.3256 82.6405 35.5382C82.48 35.7521 82.3492 35.8545 82.3347 35.8411C82.2938 35.8097 82.7354 35.3192 82.9199 34.5559C83.117 33.7965 82.9596 33.1556 83.01 33.1472Z" fill="#455A64"/>
<path d="M74.7808 36.7931C75.0049 36.9183 75.2047 36.9875 75.2269 36.9477C75.2492 36.9079 75.0855 36.7741 74.8614 36.6488C74.6373 36.5236 74.4376 36.4544 74.4154 36.4942C74.3931 36.5341 74.5567 36.6678 74.7808 36.7931Z" fill="#455A64"/>
<path d="M78.3777 35.3207C78.4206 35.3269 78.3942 35.6492 78.1915 35.9818C77.991 36.3161 77.7186 36.4894 77.6928 36.4544C77.662 36.418 77.8667 36.2036 78.0498 35.8964C78.2369 35.5915 78.3312 35.3104 78.3777 35.3207Z" fill="#455A64"/>
<path d="M79.3465 34.8007C79.3885 34.81 79.3202 35.1961 79.0564 35.5909C78.7949 35.9876 78.4662 36.2004 78.441 36.1654C78.4105 36.1285 78.6739 35.8723 78.9187 35.4996C79.167 35.1292 79.3006 34.7864 79.3465 34.8007Z" fill="#455A64"/>
<path d="M84.162 28.4345C84.1505 28.4477 84.0396 28.3416 83.8047 28.2077C83.5692 28.0786 83.1935 27.9372 82.7122 27.9252C82.235 27.9104 81.649 28.024 81.1089 28.3561C80.5685 28.6876 80.0905 29.2278 79.7436 29.8771C79.4908 30.3489 79.3158 30.8403 79.1895 31.3023L79.1634 31.398L79.0758 31.3518C78.5917 31.0976 78.0787 30.9859 77.6209 30.9797C77.1612 30.9671 76.7568 31.0514 76.4368 31.1586C75.7922 31.3787 75.4865 31.6682 75.4697 31.6422C75.4646 31.6363 75.5372 31.5638 75.6878 31.449C75.8396 31.3364 76.0773 31.1897 76.4032 31.0648C76.7283 30.9414 77.1444 30.8414 77.6226 30.8442C78.0989 30.8406 78.6376 30.9484 79.1503 31.2121L79.0369 31.2617C79.1612 30.7893 79.3376 30.2853 79.5986 29.7987C79.9564 29.1289 80.4573 28.5675 81.0305 28.2259C81.605 27.8835 82.2196 27.7782 82.7172 27.8087C83.2195 27.8364 83.6056 28.0022 83.8378 28.1528C83.952 28.2329 84.0382 28.2976 84.0884 28.3516C84.1402 28.402 84.1656 28.4303 84.162 28.4345Z" fill="#455A64"/>
<path d="M87.5911 29.2617C87.5797 29.2586 87.7726 29.213 87.9655 29.4311C88.0534 29.5361 88.1346 29.7024 88.1156 29.9071C88.0957 30.1115 87.9543 30.3224 87.7364 30.4486C87.5217 30.58 87.2283 30.6239 86.9441 30.5576C86.6585 30.4954 86.3838 30.3439 86.1267 30.1614C85.8675 29.9802 85.6185 29.7694 85.3276 29.6134C85.037 29.4558 84.7096 29.3404 84.3641 29.2749C83.67 29.1455 82.9806 29.2234 82.3982 29.4096C81.8125 29.5974 81.3264 29.8794 80.945 30.1482C80.1837 30.6956 79.808 31.1537 79.7847 31.1299C79.7772 31.1232 79.864 31.005 80.0426 30.8087C80.2229 30.6147 80.4951 30.3408 80.8762 30.0538C81.2558 29.768 81.7484 29.4672 82.3515 29.2648C82.9524 29.064 83.6686 28.9772 84.3952 29.1125C84.757 29.1814 85.1008 29.3034 85.4057 29.4717C85.7143 29.6397 85.966 29.8584 86.2158 30.0376C86.4636 30.2188 86.7175 30.3621 86.9754 30.4243C87.2322 30.489 87.485 30.4568 87.6791 30.3476C87.8739 30.2431 87.9999 30.065 88.0243 29.8962C88.0492 29.7246 87.9873 29.5708 87.9154 29.4714C87.7597 29.2637 87.5825 29.2802 87.5911 29.2617Z" fill="#455A64"/>
<path d="M117.973 40.9242C117.727 40.7058 114.406 42.0988 114.406 42.0988C114.406 42.0988 111.928 44.0423 110.909 45.1906L110.279 45.7145L100.855 53.0432L89.2626 48.2208L86.7476 54.6879C86.7476 54.6879 99.7615 59.8685 101.744 58.9814C103.899 58.0177 111.921 49.6219 111.94 49.593V49.5928L113.098 48.477C113.098 48.477 113.711 48.4649 114.176 48.4375C114.641 48.41 116.001 47.5059 116.001 47.5059C116.001 47.5059 116.198 47.1523 116.265 46.7132C116.332 46.2742 116.014 46.1376 116.014 46.1376C116.014 46.1376 116.09 45.8534 116.037 45.4835C115.984 45.1136 115.49 44.6844 115.49 44.6844C115.49 44.6844 115.685 44.525 115.799 44.0989C115.914 43.6724 115.362 43.2701 115.362 43.2701C115.362 43.2701 117.289 41.9594 117.757 41.7298C118.224 41.4999 118.219 41.1426 117.973 40.9242Z" fill="#B78876"/>
<path d="M90.9667 107.154C91.0053 106.728 91.0266 106.401 91.0266 106.196L92.3356 85.2987C92.3356 85.2987 91.2352 79.1961 90.715 77.5766L86.0353 75.7653L79.8014 78.1934C79.76 77.6903 79.7348 77.3817 79.7348 77.3817L70.5527 80.5555C70.5527 80.5555 70.315 86.8199 70.5527 88.7267C70.6289 89.3391 70.8694 90.9217 71.16 92.7862C71.16 92.7862 71.4557 96.8383 71.5165 97.0646C71.7388 97.8906 71.7906 99.9139 71.7906 101.941C71.7906 104.518 71.9306 107.583 72.0913 109.041C72.252 110.498 72.3302 126.524 72.3302 126.524H79.1053L79.9753 100.997C80.1212 98.2619 80.3407 94.0784 80.4812 91.0521L82.0728 100.477C82.0728 100.823 83.0407 106.211 83.0407 106.211C83.0407 106.211 82.6865 108.739 82.6258 111.324C82.514 116.075 81.9554 126.523 81.9554 126.523H88.5881C88.5875 126.524 90.5794 111.436 90.9667 107.154Z" fill="#263238"/>
<path d="M92.108 84.0463C92.0996 84.0617 91.8585 83.95 91.4967 83.7206C91.135 83.4922 90.6573 83.1368 90.1863 82.6818C89.7157 82.226 89.3452 81.7604 89.1047 81.4062C88.8639 81.052 88.7443 80.8154 88.7592 80.8061C88.7779 80.7944 88.9275 81.0114 89.1865 81.3465C89.4455 81.6817 89.8223 82.1297 90.286 82.5788C90.75 83.0271 91.21 83.3891 91.5536 83.6366C91.8971 83.8847 92.1189 84.0272 92.108 84.0463Z" fill="#455A64"/>
<path d="M80.2813 87.8438C80.2726 87.8483 80.227 87.7741 80.1514 87.6355C80.0749 87.4977 79.9764 87.2917 79.8661 87.0324C79.6451 86.5135 79.3982 85.7687 79.2492 84.9187C79.1019 84.0683 79.0821 83.2835 79.1151 82.7207C79.1311 82.439 79.1537 82.2122 79.1792 82.0565C79.2033 81.9005 79.2209 81.8154 79.231 81.8165C79.2543 81.8193 79.2221 82.1651 79.2162 82.7237C79.2097 83.2821 79.245 84.0549 79.3901 84.894C79.5373 85.7326 79.7653 86.4718 79.9604 86.9951C80.155 87.5187 80.3023 87.8335 80.2813 87.8438Z" fill="#455A64"/>
<path d="M81.2675 95.7125C81.2575 95.7142 81.2267 95.5845 81.1802 95.3488C81.1315 95.083 81.0699 94.7479 80.9968 94.3489C80.8495 93.4716 80.6552 92.3178 80.441 91.0418C80.0663 88.6976 79.8113 87.1016 79.6925 86.3591C79.7236 86.3476 79.8552 86.8706 80.0131 87.7126C80.1744 88.556 80.378 89.7247 80.5894 91.0174C80.8008 92.3099 80.9803 93.4823 81.1021 94.3321C81.1564 94.7342 81.202 95.0718 81.2381 95.3398C81.267 95.5781 81.2779 95.7108 81.2675 95.7125Z" fill="#455A64"/>
<path d="M65.2777 60.8568C65.2777 60.8568 64.3826 67.1551 64.2154 69.3621C64.1149 70.6907 65.4642 72.4547 66.4943 72.5838C67.5407 72.7151 70.9976 72.9192 70.9976 72.9192L71.2857 68.9693L71.1958 68.1839L70.1178 67.9808L70.4426 61.7158L65.2777 60.8568Z" fill="#B78876"/>
<path d="M70.3003 61.9277C70.3106 61.9275 70.3244 62.0493 70.3403 62.2699C70.3571 62.4908 70.3708 62.8109 70.379 63.2062C70.3969 63.9975 70.3787 65.0915 70.3109 66.2966C70.2432 67.502 70.1471 68.5903 70.0687 69.3769C70.0292 69.7703 69.994 70.0883 69.9662 70.3076C69.9382 70.5268 69.9181 70.6478 69.9077 70.6469C69.8974 70.6461 69.8979 70.5235 69.908 70.3025C69.9228 70.0505 69.941 69.7381 69.9629 69.3682C70.0155 68.5464 70.0847 67.4743 70.1608 66.2882C70.2286 65.0856 70.2636 63.9958 70.2728 63.2068C70.2765 62.8366 70.2796 62.5241 70.2821 62.2719C70.284 62.0507 70.2902 61.928 70.3003 61.9277Z" fill="#AA6550"/>
<g opacity="0.3">
<path d="M70.6402 80.6694C72.4042 81.3249 74.3374 81.3798 76.212 81.2157C78.0866 81.0516 79.9374 80.677 81.8108 80.4992C84.643 80.2304 87.5181 80.4166 90.2923 81.0483C90.4886 81.0928 90.6916 81.1401 90.8901 81.1051C91.0886 81.0698 91.2835 80.929 91.3146 80.7299C91.3633 80.4169 91.0203 80.1985 90.7283 80.0756C84.3524 77.3934 76.8378 77.5614 70.5882 80.5255" fill="black"/>
</g>
<path d="M97.6491 51.0836L87.7049 46.1321C85.0914 45.8272 82.9782 45.9257 82.9782 45.9257H76.3963C76.3963 45.9257 68.4196 48.2783 67.1033 50.4466L63.6848 60.6954L70.4426 61.7163L71.2857 69.0789C71.2857 69.0789 70.4471 77.6046 70.4471 78.8436C70.4471 80.0826 70.5527 80.5556 70.5527 80.5556C70.5527 80.5556 84.0744 78.4995 87.4045 79.5837C90.7342 80.6678 91.6339 80.5556 91.6339 80.5556C91.6339 80.5556 91.3555 77.0169 91.1086 74.9637L90.3369 64.6896L89.7665 56.8449L96.0248 58.7604L97.6491 51.0836Z" fill="#2091F9"/>
<path d="M70.3808 61.7959C70.3558 61.7987 70.2898 61.372 70.1397 60.6907C69.989 60.0098 69.7404 59.0762 69.3574 58.0764C68.9743 57.0762 68.5361 56.2023 68.1973 55.5799C68.0366 55.2906 67.9002 55.0454 67.7891 54.8452C67.6914 54.6718 67.6418 54.5738 67.651 54.5688C67.6603 54.5638 67.7272 54.6528 67.8412 54.8183C67.956 54.9829 68.1116 55.2274 68.2939 55.5345C68.659 56.1477 69.1163 57.0222 69.5024 58.0304C69.8882 59.0384 70.1226 59.984 70.2466 60.6728C70.3082 61.0175 70.3488 61.2978 70.3665 61.4924C70.3855 61.687 70.3914 61.7948 70.3808 61.7959Z" fill="#263238"/>
<path d="M83.135 64.706C83.1397 64.7077 83.1274 64.7541 83.1 64.8412C83.0658 64.9434 83.0241 65.0686 82.9731 65.2201C82.9182 65.3847 82.8469 65.5846 82.7542 65.8128C82.6623 66.0416 82.5643 66.3051 82.4353 66.5873C82.1919 67.1585 81.8682 67.8238 81.4768 68.5459C81.0789 69.2638 80.6091 70.0363 80.0681 70.8147C79.5224 71.5903 78.9574 72.2959 78.4189 72.9161C77.8749 73.531 77.3602 74.0633 76.9075 74.4875C76.6863 74.7056 76.4724 74.8879 76.289 75.0523C76.1064 75.218 75.9429 75.3533 75.8071 75.4613C75.6822 75.5607 75.5792 75.6431 75.4946 75.7103C75.4221 75.766 75.3826 75.7934 75.3795 75.7895C75.3764 75.7856 75.4098 75.7509 75.4761 75.6881C75.5556 75.6156 75.6528 75.5269 75.7707 75.4193C75.9006 75.3048 76.0582 75.1637 76.2352 74.9932C76.413 74.8238 76.6213 74.637 76.8369 74.4153C77.2793 73.9832 77.7836 73.4465 78.3195 72.8302C78.8496 72.2083 79.4082 71.5041 79.9508 70.7333C80.489 69.9591 80.9594 69.1933 81.3615 68.4826C81.7571 67.7678 82.0886 67.1103 82.3428 66.5467C82.4772 66.2681 82.5814 66.0085 82.6797 65.7834C82.7794 65.5586 82.858 65.3623 82.921 65.201C82.9818 65.0535 83.0319 64.9317 83.0728 64.8323C83.1089 64.7477 83.1302 64.7043 83.135 64.706Z" fill="#263238"/>
<path d="M87.7296 46.8111C87.7587 46.8246 87.3577 47.2216 87.2057 48.0588C87.1281 48.4718 87.1262 48.9775 87.2147 49.5285C87.3001 50.0801 87.4661 50.6768 87.6349 51.304C87.9782 52.5573 88.3414 53.6767 88.6172 54.4826C88.7488 54.8631 88.8591 55.1826 88.947 55.4365C89.0248 55.6619 89.064 55.7879 89.0545 55.7919C89.045 55.7958 88.9873 55.6768 88.8927 55.4575C88.7986 55.238 88.6681 54.918 88.5175 54.5184C88.2156 53.7199 87.8348 52.6015 87.4904 51.3438C87.3213 50.7152 87.1578 50.114 87.078 49.549C86.9949 48.9856 87.0077 48.4615 87.1015 48.0381C87.1917 47.6133 87.3524 47.2941 87.4863 47.0942C87.6229 46.8946 87.7237 46.8058 87.7296 46.8111Z" fill="#263238"/>
<path d="M68.9634 57.5994C68.9735 57.6106 68.7962 57.7887 68.4334 57.9592C68.0758 58.13 67.515 58.2708 66.9034 58.1782C66.2916 58.0849 65.798 57.7836 65.5076 57.514C65.212 57.2432 65.0958 57.0204 65.1089 57.0128C65.1285 56.9974 65.273 57.1951 65.5746 57.4353C65.8719 57.6753 66.3476 57.9455 66.9258 58.0337C67.5038 58.1213 68.0383 58.0051 68.3936 57.8643C68.7523 57.7246 68.9491 57.579 68.9634 57.5994Z" fill="white"/>
<path d="M88.0252 52.9757C88.03 52.9777 88.0009 53.0516 87.9412 53.1913C87.881 53.3302 87.785 53.5321 87.6478 53.7855C87.3689 54.287 86.9159 55.001 86.1694 55.7195C85.4285 56.4312 84.3603 57.1388 83.0135 57.437C82.3451 57.5862 81.6143 57.6386 80.8729 57.5291C80.1289 57.4286 79.3965 57.1391 78.7071 56.7591C77.3323 55.9911 76.1717 55.0195 74.8999 54.5549C73.6391 54.0708 72.371 54.1268 71.3893 54.3615C70.3953 54.6 69.6704 55.0321 69.2081 55.3613C68.7489 55.7018 68.5339 55.9387 68.521 55.9253C68.521 55.9253 68.7206 55.6741 69.1739 55.316C69.6301 54.9696 70.3572 54.5172 71.3644 54.2615C72.3587 54.0104 73.6523 53.9406 74.9467 54.4295C76.2487 54.8985 77.4202 55.8754 78.7771 56.6314C79.4575 57.0061 80.1698 57.2877 80.8933 57.3877C81.6149 57.4963 82.3295 57.4485 82.9844 57.3059C84.3046 57.0209 85.3585 56.3374 86.0985 55.6444C86.8442 54.9455 87.3065 54.247 87.5985 53.7575C87.7424 53.5103 87.8463 53.3134 87.9146 53.1787C87.9824 53.0438 88.0205 52.9738 88.0252 52.9757Z" fill="white"/>
<path d="M94.2502 49.3847C94.2578 49.3816 94.3104 49.4939 94.3798 49.707C94.4465 49.9203 94.5187 50.2393 94.5411 50.6411C94.5604 51.0415 94.5324 51.5273 94.3849 52.0408C94.2429 52.554 93.9878 53.0961 93.5981 53.5763C93.2069 54.059 92.732 54.404 92.3501 54.7565C91.9592 55.102 91.6644 55.4671 91.5031 55.8236C91.3371 56.1769 91.2998 56.4987 91.3175 56.7148C91.3343 56.9324 91.3805 57.0486 91.3673 57.0531C91.3623 57.0547 91.3486 57.0273 91.3259 56.9724C91.3035 56.9175 91.2772 56.833 91.2615 56.721C91.2254 56.4981 91.248 56.1562 91.4093 55.7819C91.5644 55.4053 91.868 55.0138 92.2591 54.6579C92.6433 54.2945 93.1106 53.9481 93.4852 53.4847C94.2463 52.5512 94.4605 51.4197 94.4381 50.6453C94.4188 49.8562 94.2186 49.3925 94.2502 49.3847Z" fill="white"/>
<path d="M78.0763 72.991C78.0788 73 77.9758 73.0383 77.7848 73.0924C77.5936 73.1456 77.315 73.2184 76.9608 73.2685C76.6088 73.3108 76.1686 73.3427 75.7041 73.1948C75.4737 73.1223 75.2444 72.9974 75.045 72.8241C74.8468 72.65 74.681 72.4388 74.5077 72.2356C74.3355 72.0306 74.1501 71.8562 73.9452 71.7164C73.7394 71.5792 73.5196 71.4798 73.3034 71.4084C72.8686 71.2651 72.4463 71.2539 72.103 71.2934C71.7575 71.3334 71.4893 71.4342 71.3129 71.516C71.1348 71.5969 71.0418 71.6557 71.0343 71.6445C71.0304 71.6392 71.1127 71.5641 71.2871 71.4653C71.4599 71.3659 71.7315 71.2463 72.0885 71.1912C72.4432 71.1368 72.8848 71.1371 73.3437 71.2799C73.5719 71.3513 73.8049 71.4532 74.0244 71.5972C74.2422 71.7422 74.4441 71.9318 74.6186 72.1401C74.795 72.347 74.956 72.5525 75.1399 72.7163C75.3236 72.8782 75.5322 72.9952 75.7467 73.0669C76.1776 73.2122 76.6035 73.1943 76.9493 73.1654C77.6454 73.0856 78.0707 72.9636 78.0763 72.991Z" fill="white"/>
<path d="M90.9526 72.3924C90.9557 72.3966 90.9252 72.4224 90.8644 72.4683C90.802 72.5114 90.7154 72.5851 90.5883 72.6548C90.343 72.8085 89.9608 72.9955 89.4566 73.1283C88.9534 73.252 88.3248 73.3318 87.6396 73.2333C86.955 73.1507 86.2189 72.8754 85.5744 72.4047C84.9318 71.9318 84.4244 71.3729 83.9226 70.9193C83.4273 70.4585 82.9244 70.1101 82.4566 69.9091C81.9912 69.7016 81.5751 69.6473 81.292 69.6515C81.0073 69.6563 80.8522 69.6988 80.8491 69.6843C80.8477 69.6795 80.8855 69.6666 80.9594 69.6467C81.033 69.6252 81.1448 69.6053 81.2901 69.5947C81.5796 69.5725 82.0133 69.6129 82.4972 69.8142C82.9824 70.0077 83.5077 70.3588 84.0134 70.8199C84.5255 71.2733 85.0345 71.8265 85.6609 72.2869C86.2867 72.7433 86.9934 73.0121 87.6589 73.1C88.324 73.203 88.9374 73.1367 89.4328 73.028C89.9286 72.9107 90.3106 72.7419 90.5612 72.6052C90.8129 72.4717 90.9445 72.3809 90.9526 72.3924Z" fill="white"/>
<path d="M114.754 32.4971C112.144 31.2539 109.885 29.2138 108.387 26.4944C106.541 23.1454 106.11 19.2777 107.173 15.6041C108.236 11.9305 110.666 8.89083 114.016 7.04507C120.929 3.23483 129.655 5.75987 133.465 12.6742C135.311 16.0236 135.742 19.8912 134.679 23.5648C133.616 27.2384 131.186 30.2778 127.836 32.1236C123.642 34.435 118.779 34.4148 114.754 32.4971ZM126.685 7.53647C122.929 5.74699 118.393 5.72795 114.479 7.88479C111.354 9.60679 109.086 12.4432 108.094 15.8707C107.102 19.2982 107.505 22.9068 109.227 26.0319C110.949 29.1572 113.785 31.4244 117.213 32.4162C120.64 33.4082 124.249 33.0058 127.373 31.2838C130.499 29.5618 132.766 26.7257 133.758 23.2982C134.75 19.8708 134.348 16.2621 132.625 13.137C131.228 10.6002 129.12 8.69651 126.685 7.53647Z" fill="#263238"/>
<path d="M138.911 48.146C138.074 48.6617 136.978 48.4022 136.462 47.5661L127.1 32.3949C127.011 32.2512 127.056 32.0628 127.199 31.9743L129.196 30.742C129.337 30.6555 129.52 30.6955 129.611 30.8327L139.458 45.6464C140.015 46.4845 139.767 47.6176 138.911 48.146Z" fill="#263238"/>
<path d="M115.098 31.7744C112.488 30.5312 110.23 28.4911 108.731 25.7718C106.885 22.4227 106.454 18.5551 107.517 14.8815C108.581 11.2076 111.011 8.16818 114.36 6.32242C121.274 2.5119 129.999 5.03722 133.81 11.9515C135.656 15.3009 136.086 19.1685 135.023 22.8421C133.96 26.5155 131.53 29.5551 128.181 31.4009C123.986 33.7126 119.123 33.6924 115.098 31.7744ZM127.029 6.8141C123.273 5.02434 118.737 5.00558 114.823 7.16242C111.698 8.88442 109.43 11.7208 108.438 15.1483C107.446 18.5758 107.848 22.1844 109.571 25.3095C111.293 28.4349 114.129 30.702 117.557 31.6938C120.984 32.6858 124.593 32.2837 127.718 30.5615C130.842 28.8395 133.11 26.0031 134.102 22.5759C135.094 19.1484 134.691 15.5397 132.969 12.4147C131.572 9.87758 129.464 7.97386 127.029 6.8141Z" fill="#455A64"/>
<path d="M139.295 47.9085L139.15 47.9979C138.498 48.4005 137.642 48.198 137.239 47.5451L127.283 31.4118L129.791 29.8636L139.748 45.9972C140.151 46.6499 139.948 47.5059 139.295 47.9085Z" fill="#455A64"/>
<path d="M110.583 15.4616C110.573 15.4597 110.602 15.3029 110.662 15.0195C110.69 14.8773 110.729 14.7045 110.794 14.5091C110.857 14.3131 110.915 14.0849 111.018 13.8466C111.066 13.7253 111.116 13.5991 111.168 13.468C111.221 13.337 111.292 13.2071 111.357 13.069C111.482 12.7899 111.652 12.5118 111.824 12.2147C112.19 11.6346 112.645 11.0287 113.195 10.4566C113.752 9.89157 114.346 9.42005 114.916 9.03813C115.208 8.85809 115.482 8.68029 115.757 8.54757C115.893 8.47897 116.021 8.40533 116.151 8.34849C116.281 8.29305 116.406 8.23957 116.525 8.18833C116.761 8.07913 116.987 8.01445 117.181 7.94669C117.375 7.87641 117.547 7.83217 117.688 7.80081C117.97 7.73277 118.126 7.70001 118.128 7.70897C118.13 7.71821 117.978 7.76861 117.703 7.85177C117.564 7.89097 117.396 7.94221 117.206 8.01893C117.016 8.09313 116.794 8.16341 116.564 8.27709C116.446 8.33029 116.324 8.38601 116.196 8.44369C116.07 8.50249 115.944 8.57781 115.811 8.64781C115.54 8.78305 115.272 8.96281 114.986 9.14313C114.427 9.52645 113.843 9.99433 113.293 10.5521C112.751 11.1166 112.299 11.7124 111.931 12.2817C111.759 12.5734 111.587 12.8461 111.459 13.12C111.392 13.2552 111.321 13.3826 111.265 13.5111C111.211 13.6397 111.159 13.7634 111.109 13.8824C111.001 14.1162 110.937 14.3399 110.868 14.532C110.797 14.7238 110.75 14.8932 110.715 15.0329C110.638 15.3101 110.592 15.4633 110.583 15.4616Z" fill="#E0E0E0"/>
</svg>
